<?xml version="1.0" encoding="utf-8"?>
<!-- Generator: Adobe Illustrator 27.0.0, SVG Export Plug-In . SVG Version: 6.00 Build 0)  -->
<svg version="1.1" id="Layer_1" xmlns="http://www.w3.org/2000/svg" xmlns:xlink="http://www.w3.org/1999/xlink" x="0px" y="0px"
	 viewBox="0 0 300 100" style="enable-background:new 0 0 300 100;" xml:space="preserve">
<style type="text/css">
	.st0{fill:#2D2D2D;}
</style>
<g>
	<path class="st0" d="M39.9,56.9c-1.3,0.2-2.3,0.4-3.3,0.6c0.4-1.3,1.4-1.6,2.4-2.1c1.2-0.6,2.3-1.4,3.4-2.3
		c0.2-0.2,0.2-0.8,0.3-1.2c-0.4,0-0.8-0.1-1.2,0.1c-1.7,0.6-3.4,1.3-5.2,1.9c-0.4,0.2-0.9,0.2-1.5,0c0.3-0.1,0.6-0.2,0.8-0.3
		c0.4-0.2,0.8-0.5,1.2-0.7c-0.3-0.3-0.6-0.7-0.8-1.1c1.6-1.4,3.5-2.1,5.7-2.4c0.3-0.1,0.8-0.8,0.8-1.3c0.1-0.5-0.1-1.3-0.4-1.5
		c-0.6-0.3-1.4-0.3-2.1-0.3c-0.9,0-1.7,0.2-2.7,0.3c0.2-1.2,1.2-1.6,1.9-1.7c2.2-0.4,3.4-2,4.5-3.7c0.3-0.5,0.5-1.4,0.2-1.7
		c-0.2-0.4-1.2-0.5-1.7-0.4c-1.9,0.3-3.8,0.8-5.7,1.2c-0.4,0.1-0.9-0.2-1.4-0.3c0.2-0.5,0.3-1,0.5-1.5c0-0.1,0.1-0.1,0.2-0.2
		c2.8-1.3,5-3.8,8-4.6c0.4-0.1,0.7-0.5,1.1-0.8c-0.3-0.3-0.6-0.7-0.9-1c-0.9-0.9-1.7-0.7-2.8,0c-1.1,0.7-2.4,1.2-3.6,1.7
		c-0.1-0.2-0.3-0.3-0.4-0.4c0.2-0.5,0.5-1,0.7-1.5c0.9-1.6,2.2-2.5,4-2.9c1.5-0.4,2.9-1.1,3.4-2.8c0.1-0.4,0.1-1-0.1-1.3
		c-0.1-0.2-0.8-0.2-1.2-0.1c-0.6,0.1-1,0.5-1.6,0.6c-0.3,0.1-0.8-0.2-1.1-0.4c-0.1-0.1,0.1-0.7,0.3-0.9c0.4-0.4,0.9-0.7,1.4-1.1
		c-1.1-1.2-0.6-1.8,2.2-3.2c-0.3-0.8-0.8-1.6-0.7-2.2c0.2-0.7,1-1.2,1.5-1.7c-0.5-0.4-0.8-0.7-1.1-1c0.3-0.3,0.6-0.6,0.9-0.9
		c0.5-0.7,0.9-1.5,1.5-2.5c0.1,0.4,0.1,0.8,0.2,1.1c0.2,0.8,0.3,1.5,1.2,2.1c1.2,0.7-0.2,0.9-0.7,1.4c1,1.8,2,3.7,3.1,5.7
		c-0.7,0.1-1.1,0.1-1.8,0.2c0.4,0.3,0.6,0.5,0.8,0.6c0.5,0.3,1.1,0.5,1.6,0.9c0.3,0.3,0.4,0.8,0.6,1.2c-0.4,0.2-0.8,0.4-1.3,0.4
		c-0.3,0.1-0.6-0.2-0.9-0.1c-0.4,0.1-1.1,0.3-1.3,0.7c-0.2,0.4,0,1.1,0.3,1.4c0.7,0.6,1.6,1.1,2.4,1.6c1.2,0.6,2.6,1.1,3.8,1.8
		c0.5,0.3,1,0.8,1.4,1.2c-0.1,0.2-0.1,0.3-0.2,0.5c-2.1-0.2-4.2-0.5-6.3-0.7c0,0.1-0.1,0.3-0.1,0.4c1,0.7,1.9,2,2.9,2.1
		c1.9,0.3,2.7,1.8,4,2.7c1,0.7,1.2,1.8,1.1,3.2c-2.1-0.5-4.3,0.1-6.2-1.4c-1.1-0.9-1.8-0.4-1.8,1.1c-0.1,2.3,1.6,3.2,3.2,4.3
		c0.8,0.5,1.5,1.1,2.3,1.7c-0.1,0.2-0.2,0.4-0.2,0.6c-1.7-0.1-3.4-0.3-5.5-0.4c0.6,1,1,1.9,1.6,2.4c1.4,1.1,2.8,2.3,4.7,2.4
		c0.4,0,0.8,0.2,1.1,0.3c0.9,0.3,1.1,0.8,0.3,1.5c-0.3,0.3-0.7,0.6-0.9,0.9c-0.6,0.8-1.3,0.7-2.1,0.3c-0.7-0.4-1.4-0.8-2.1-1.1
		c-0.5-0.2-1.4-0.2-1.5,0.1c-0.3,0.5-0.4,1.3-0.2,1.8c0.8,1.8,2.3,2.8,4.3,3c0.3,0.1,0.6-0.1,0.9,0.1c0.4,0.2,1,0.4,1.1,0.7
		c0.1,0.3-0.2,0.9-0.5,1.2c-0.6,0.6-0.9,1.3,0.1,1.6c3,1,3.6,3.5,4.1,6.5c-0.7-0.2-1.3-0.1-1.7-0.4c-2.3-1.9-4.9-2.6-7.8-2.6
		c-0.7,0-1.4-0.5-2.1-0.8c-0.1,0.1-0.2,0.2-0.2,0.3c0.1,4.5,0,8.9,0.2,13.4c0.1,2,1,3.6,3,4.6c1.6,0.7,3,1.8,4.5,2.6
		c0.4,0.3,0.9,0.4,1.4,0.7c-0.2,0.2-0.3,0.4-0.5,0.7c-6.8,0-13.5,0-20.3,0c-0.1-0.1-0.1-0.2-0.2-0.2c0.5-0.3,1-0.8,1.6-0.9
		c1.2-0.3,2.1-0.9,2.5-2.1c0.4-1.2,1.3-2.1,2.6-2.4c1.2-0.3,1.7-1,1.8-2.1c0.1-2.5,0.2-5,0.3-7.5c0-1.4,0-2.8-0.1-4.2
		c0-0.7-0.2-1.4-0.4-2c-0.6-1.4-1.8-1.4-2.7-0.2c-0.7,0.9-1.7,1.3-2.6,1.8c-1.7,1.1-3.6,1.4-5.3,2.3c-0.3,0.1-0.4,0.5-0.6,0.7
		c-0.6,0.3-1.2,0.6-1.9,0.7c0.6-2.7,1.6-5.1,3.7-7c1.2-1.1,2.2-2.3,3.2-3.5C39.8,58.3,39.7,57.6,39.9,56.9z"/>
	<path class="st0" d="M43.8,19.1c-1.1,1-2.4,1.5-2.2,3.2c0,0.2-0.4,0.5-0.7,0.7c-0.6,0.6-0.9,1.3-0.3,2c0.6,0.7,1.3,1.2,2.3,0.7
		c0.5-0.2,1-0.4,1.5-0.7c0.1,0.1,0.2,0.3,0.3,0.4c-0.4,0.2-0.7,0.6-1.1,0.6c-1.6,0.1-3.2,0-4.9,0c-0.1,0.2-0.2,0.4-0.2,0.5
		c0.3,1.8-0.4,3.3-1.4,4.7c-1.2,1.7-0.8,2.5,1.3,2.8c0.4,1-0.1,1.6-0.9,2.1c-0.6,0.3-1.4,0.5-1.8,1c-0.6,0.6-1.2,1.3-1.3,2.1
		c-0.2,1.3,0.5,1.8,1.8,1.7c0.7-0.1,1.5-0.2,2.3-0.3c0.1,0.4,0.2,0.9,0.3,1.4c0.9,0.1,1.9,0.1,2.8,0.1c0.1,0.1,0.1,0.2,0.2,0.3
		c-0.6,0.3-1.1,0.7-1.7,0.9c-0.9,0.4-1.9,0.7-2.7,1.3c-0.8,0.5-1.2,1.4-0.7,2.6c1.2-0.1,2.5-0.3,3.8-0.3c0.4,0,1.2,0.3,1.3,0.6
		c0.2,0.7-0.5,0.7-1.1,0.9c-1.3,0.4-2.5,0.9-3.7,1.5c-0.3,0.2-0.6,0.5-1,0.6c-1,0.4-1.2,1-0.8,2c-0.2,0.1-0.6,0.2-0.7,0.4
		c-0.2,0.4-0.6,0.9-0.5,1.2c0.1,0.3,0.7,0.7,1.1,0.7c1.3-0.2,2.6-0.6,3.9-0.9c0.4-0.1,0.9-0.3,1.4-0.2c-0.4,0.2-0.8,0.3-1.2,0.5
		c-1.1,0.6-2.1,1.2-3.2,1.7c-0.6,0.2-1.2,0.3-1.8,0.4c-1.8,0.3-3-0.4-4.2-1.7c-1.8-2.1-3.9-3.9-5.8-5.9c-0.4-0.4-0.7-1.1-0.7-1.7
		c-0.1-8.2-0.1-16.4,0-24.6c0-0.6,0.3-1.3,0.8-1.8c2.7-2.8,5.5-5.5,8.3-8.3c0.3-0.3,0.7-0.7,1.1-0.7c4.2-0.1,8.4,0,12.9,0
		c-0.4,0.5-0.6,0.9-0.9,1C44.2,13,44.3,14,44.5,15c0.1,0.3,0.1,0.8-0.1,1C43.5,17,43.3,18,43.8,19.1z"/>
	<path class="st0" d="M50.2,71.5c2.2,0,4.2,0,6.3,0c0-1.9,0-3.8,0-5.9c1.1,0.7,1.8,1.3,2.8,1.7c0.7,0.3,1.6,0.4,2.2,0.1
		c0.4-0.2,0.4-1.3,0.3-2c-0.4-2.6-1.5-4.8-3.9-5.6c0.1-1,0.6-2.1,0.3-2.7c-0.4-0.6-1.6-0.9-2.4-1.1c-2.1-0.3-3.9-1.7-3.9-3.6
		c0.9,0.4,1.7,0.8,2.5,1.2c1.4,0.8,2.3,0.7,3.4-0.5c0.2-0.2,0.4-0.3,0.6-0.6c0.3-0.6,1.1-1.4,0.9-1.8c-0.2-0.6-1-1.2-1.7-1.4
		c-1.6-0.3-3.1-0.8-4.4-1.8c-0.4-0.3-0.8-0.7-1.1-1.4c0.8,0.1,1.6,0.3,2.4,0.2c0.7-0.1,1.4-0.4,2.1-0.7c-0.3-0.7-0.4-1.5-0.9-2.2
		c-0.3-0.5-1-0.8-1.9-1.4c1.9,0,3.6,0.1,5.2,0c2-0.2,3.4,0.5,4.7,1.9c1.8,1.9,3.8,3.6,5.7,5.5c0.4,0.4,0.7,1.1,0.7,1.7
		c0.1,8.3,0.1,16.7,0,25c0,0.5-0.2,1.1-0.6,1.5c-2.3,2.4-4.7,4.7-7.1,7.1c-1,1-2.1,0.6-3.2,0.6c-0.1,0-0.2-0.3-0.4-0.5
		c-0.7-0.7-1.3-1.6-2.1-1.9c-4.1-1.9-7.2-4.4-6.6-9.6C50.2,72.9,50.2,72.3,50.2,71.5z"/>
	<path class="st0" d="M275.5,47.1c-1.9,0.6-3.8,1.4-5.7,1.7c-6.8,1-12.4-3.5-12.8-10.3c-0.1-2.4,0.1-5,0.7-7.3
		c1.4-5.1,6-8.5,11.3-8.7c2.1-0.1,4.1,0,6.2,0c0-3,0.1-6.2,0-9.4c0-1.2-0.9-1.9-2.1-1.9c-0.7-0.1-1.2-0.2-0.9-1.1
		c3-0.5,5.9-0.9,8.9-1.4c0,0.9,0,1.7,0,2.5c0,10.4,0,20.8,0,31.2c0,0.1,0,0.2,0,0.3c0.1,3,0.3,3.3,3.3,3.9c0,0.3,0.1,0.7,0.1,1.1
		c-0.2,0.1-0.4,0.1-0.6,0.1c-2.4,0.3-4.8,0.7-7.3,1.1c-0.9,0.2-1.3,0-1.2-0.9C275.5,47.6,275.5,47.3,275.5,47.1z M275.3,35.7
		c0-2.6,0-5.1,0-7.6c0-0.5-0.3-1.1-0.7-1.4c-3.8-2.8-9.4-1.1-10.9,3.4c-0.9,2.8-1.1,5.7-0.6,8.6c1,5.2,5.6,7.9,10.7,6.3
		c1-0.3,1.6-0.8,1.5-2C275.3,40.6,275.3,38.2,275.3,35.7z"/>
	<path class="st0" d="M171.9,48.4c-4.1,0-8.2,0-12.8,0c0.5-0.5,0.7-1,1.1-1.1c1.9-0.6,2.6-1.2,2.6-3.1c0.1-5.5,0.1-10.9,0-16.3
		c0-1.5-0.7-2.1-2.2-2.3c-0.3-0.1-0.7-0.1-1.1-0.2c0-0.4-0.1-0.7-0.1-1.2c0.2-0.1,0.4-0.2,0.5-0.2c2.6-0.1,5.2-0.2,7.6-1.3
		c0.6-0.3,1-0.1,1,0.7c0,0.3,0,0.7,0.1,1.3c0.5-0.3,0.8-0.4,1.2-0.7c2.4-1.4,5.1-1.8,7.9-1.5c4.3,0.5,6.8,3.3,7,8
		c0.1,3.6,0,7.3,0.1,10.9c0,1.1,0.1,2.1,0.2,3.1c0.2,1.8,0.7,2.2,2.3,2.7c0.4,0.1,0.7,0.5,1,0.8c-0.1,0.1-0.2,0.2-0.2,0.3
		c-4.1,0-8.3,0-12.9,0c0.5-0.5,0.8-1,1.2-1.1c1.6-0.3,2.4-1.2,2.5-2.8c0.1-4.6,0.3-9.3,0-13.9c-0.2-3.2-2-4.5-5.2-4.6
		c-0.1,0-0.3,0-0.4,0c-4.2,0.2-4.5,0.5-4.5,4.7c0,3.9,0,7.7,0,11.6c0,0.8,0.1,1.7,0.2,2.5c0.1,1.5,0.9,2.3,2.3,2.6
		c0.4,0.1,0.7,0.5,1,0.8C172.1,48.2,172,48.3,171.9,48.4z"/>
	<path class="st0" d="M90.5,40.2c0.4,0,0.7,0,1.1,0c0.1,0.1,0.1,0.1,0.2,0.2c1,4.1,3.9,5.8,8.8,5.2c2.4-0.3,4.5-1.1,5.2-3.7
		c0.7-2.7,0.2-5.1-2.1-6.8c-1.8-1.4-3.8-2.7-5.7-4c-1-0.7-2-1.4-3-2.2c-3.5-2.8-4.6-6.4-3.4-10.5c1-3.6,4.2-6.1,8.5-6.3
		c3.3-0.2,6.6,0.2,10,0.3c0.7,0,1.1,0.3,1.1,1.1c-0.1,1.8,0,3.7,0,5.5c0,0.3-0.4,0.6-0.6,0.9c-0.3-0.3-0.7-0.5-0.7-0.8
		c-0.3-2.2-1.6-3.6-3.7-3.8c-1.8-0.2-3.7-0.3-5.5-0.1c-1.8,0.2-3.3,1.1-3.9,3.1c-0.6,2.1-0.4,4.1,1.3,5.6c1,0.9,2.2,1.7,3.3,2.4
		c2.1,1.4,4.2,2.8,6.2,4.2c4.3,3.1,4.9,8.1,3.3,12.3c-1.4,3.7-4.6,5.2-8.2,5.8c-3.8,0.7-7.5,0.3-11.2-0.7c-0.8-0.2-1.1-0.5-1-1.3
		C90.6,44.4,90.5,42.3,90.5,40.2z"/>
	<path class="st0" d="M70.1,33.5c-4.7,0-9.1,0-13.6,0c-0.3,0-0.6-0.4-0.9-0.6c0.1-0.1,0.1-0.2,0.2-0.4c0.2,0,0.4,0,0.6-0.1
		c0.5-0.2,1.1-0.4,1.3-0.8c0.2-0.3-0.1-1.2-0.4-1.4c-1.7-0.9-1.7-2.3-1.5-4.2c-2.1,0-4,0-6,0c0-0.2,0-0.3,0-0.5
		c0.3,0,0.6-0.1,0.8-0.1c0.5,0,1,0.1,1.4,0c1.6-0.4,1.9-1.5,0.8-2.7c-0.3-0.3-0.6-0.7-0.9-1c0-0.3,0.2-0.8,0.1-1.2
		c-0.8-1.6-1.6-3.1-2.4-4.6c1-1.5,0.9-1.7-0.6-2.8c-0.3-0.2-0.4-0.8-0.8-1.5c1.6,0,2.8,0,3.9,0c2.4,0,4.9-0.1,7.4,0
		c0.6,0,1.3,0.3,1.8,0.8c2.7,2.7,5.3,5.5,8,8.2c0.3,0.3,0.7,0.8,0.7,1.2C70.1,25.7,70.1,29.5,70.1,33.5z"/>
	<path class="st0" d="M233.5,35.4c0,4.3-1.2,8.1-4.6,11c-4.6,3.9-15.2,4-19-2.8c-3.5-6.2-1.6-15.6,4-19.3c4.2-2.8,13.8-3.1,17.6,3.1
		C233,29.8,233.6,32.5,233.5,35.4z M227.5,35.9c0.1,0,0.2-0.1,0.3-0.1c-0.5-2.2-0.8-4.6-1.6-6.7c-0.8-2.3-2.6-3.8-5.3-3.8
		c-2.7,0-4.5,1.4-5.5,3.8c-1.8,4.5-1.7,9.1,0.2,13.6c1,2.2,2.7,3.4,5.2,3.4c2.5,0,4.2-1.2,5.3-3.4C227.2,40.6,227.5,38.3,227.5,35.9
		z"/>
	<path class="st0" d="M32.8,65.2c-0.3,0.8-0.6,1.6-0.9,2.4c-0.3,0.8-0.6,1.8,0.3,2.2c0.7,0.3,2.1,0.2,2.4-0.2c1.2-1.7,3-1.6,4.7-2.1
		c0,1.3,0,2.7,0,4.2c1.7,0,3.3,0.1,4.8,0c0.9,0,1.3,0.3,1.2,1.2c-0.1,1.5-0.2,3.1-0.2,4.6c-0.1,0.8-0.4,1.3-1.3,1.6
		c-1.4,0.4-2.3,1.4-3,2.7c-0.3,0.7-1.2,1.1-1.8,1.6c-0.7,0.5-1.5,1-2.2,1.4c-0.5,0.3-0.9,0.7-1.5,0.8c-2.5,0.5-4.5-0.3-6.1-2.4
		c-1.5-1.9-3.4-3.5-5.1-5.3c-0.3-0.3-0.6-0.7-0.6-1.1c-0.1-3.8,0-7.6,0-11.5C26.6,65.2,29.7,65.2,32.8,65.2z"/>
	<path class="st0" d="M147.9,46.3c-2.5,2.2-5.2,2.9-8.3,2.3c-3.1-0.6-5-2.5-5.4-5.5c-0.5-3.3,0.7-6.2,3.6-7.5c2.8-1.2,5.7-2.1,8.5-3
		c1-0.3,1.4-0.7,1.3-1.8c-0.1-2.6-0.9-4.2-3-4.9c-2.3-0.8-5-0.1-6.4,1.7c-0.2,0.3-0.4,0.6-0.7,1c-0.4-0.2-0.7-0.4-1.2-0.7
		c0.8-2.8,2.7-4.4,5.4-5.3c2.1-0.7,4.2-0.7,6.4-0.2c3.3,0.8,5.2,2.9,5.3,6.3c0.1,4.2,0,8.4,0,12.6c0,0.5,0,1,0,1.4
		c0.2,2,1.2,2.6,3,1.7c0.8,0.5,0.8,1,0.2,1.7c-1.2,1.3-2.5,2.3-4.4,2.4C150.4,48.9,148.9,48.2,147.9,46.3z M147.7,35.2
		c-2.3,1-4.4,1.8-6.2,2.9c-1.6,1-1.7,2.9-1.4,4.6c0.3,1.3,1.2,2.3,2.5,2.4c1.4,0.1,2.9-0.3,4.3-0.6c0.3-0.1,0.8-0.6,0.8-0.9
		C147.7,41,147.7,38.3,147.7,35.2z"/>
	<path class="st0" d="M200.4,23.1c2.1,0,3.9,0,5.8,0c0,1,0,2,0,3.1c-1.8,0-3.6,0-5.5,0c-0.1,0.5-0.1,0.8-0.1,1.1
		c0,5.2,0,10.5,0,15.7c0,0.2,0,0.3,0,0.5c0.1,2.9,0.7,3.5,3.6,3.7c0.9,0.1,1.1,0.4,0.8,1.2c-4.5,0-9,0-14,0c0.4-0.5,0.6-1,0.9-1.1
		c2.2-0.7,2.7-1.2,2.8-3.5c0.1-1.4,0.1-2.7,0.1-4.1c0-4,0-8,0-12c0-0.5,0-0.9,0-1.6c-1.1,0-2.1,0-3.1,0c-0.4-1-0.2-1.5,0.7-1.8
		c0.1,0,0.2-0.1,0.4-0.2c1.4-0.5,2.2-1.2,2.1-3c-0.1-1.6,0.1-3.2,0.3-4.7c1-6.3,5.5-8.5,11.1-8.1c1.6,0.1,3.3,0.9,4.8,1.5
		c0.9,0.3,1,1,0.4,1.8c-0.5,0.7-1,1.3-1.5,2c-0.8,1.2-0.9,1.2-1.6-0.1c-0.8-1.4-1.9-2.2-3.5-2.4c-2.1-0.3-3.8,0.9-4.1,3
		C200.5,17.1,200.5,20,200.4,23.1z"/>
	<path class="st0" d="M117.3,26.3c-1.2,0-2.2,0-3.6,0c0.4-0.6,0.5-1.1,0.8-1.2c3.1-1.4,5.1-3.8,6.8-6.7c0.3-0.4,0.8-0.8,1.2-1.1
		c0.1,0.1,0.3,0.2,0.4,0.3c0,1.8,0,3.6,0,5.5c2.9,0,5.7,0,8.6,0c0,1.1,0,2,0,3.2c-1.1,0-2.3,0-3.4,0c-1.3,0-2.6,0.1-3.9,0
		c-0.9-0.1-1.2,0.3-1.2,1.2c0.1,4.5,0.1,9,0.1,13.4c0,5.1,3.4,5.8,7,4.7c0.3-0.1,0.7-0.2,1-0.4c0.7,0.6,0.6,1.1,0,1.6
		c-2.5,2.4-7.9,3-10.8,1.2c-1.8-1.1-2.7-2.9-2.8-5c-0.1-4.9-0.1-9.8-0.1-14.7C117.3,27.7,117.3,27.1,117.3,26.3z"/>
	<path class="st0" d="M236.2,48.4c-0.2-0.7-0.1-1.1,0.8-1.2c1.7-0.3,2.5-1.2,2.6-3c0.1-5.5,0.1-11,0.1-16.4c0-1.2-0.7-1.9-1.9-2.1
		c-0.5-0.1-0.9-0.2-1.4-0.2c0-0.5,0-0.8,0-1.2c3-0.5,6-0.9,9-1.4c0.1,0.6,0.1,1.2,0.1,2c0.5-0.3,0.8-0.6,1.2-0.8
		c2.5-1.5,5.2-1.8,7.9-0.6c1.3,0.6,1.4,1.1,0.8,2.4c-0.4,0.8-0.9,1.6-1.3,2.4c-0.6,1.1-1.1,1.1-1.9,0.2c-1.6-1.7-3.9-2.3-5.8-1.3
		c-0.4,0.2-0.8,0.7-0.8,1c0,5.3-0.1,10.5,0.1,15.8c0.1,2.5,0.7,3,3.5,3.2c0.9,0.1,1.2,0.4,0.9,1.3C245.4,48.4,240.8,48.4,236.2,48.4
		z"/>
	<path class="st0" d="M38.8,58.5c-0.3,0.1-0.7,0.4-1,0.4c-2.2,0-4.3,0.1-6.5,0c-0.4,0-1-0.3-1.3-0.6c-2.9-2.8-5.7-5.7-8.6-8.6
		c-0.4-0.4-0.6-1.1-0.6-1.6c0-9-0.1-17.9,0-26.9c0-0.6,0.3-1.3,0.7-1.7c3.3-3.3,6.6-6.6,9.9-9.8c0.3-0.3,1-0.6,1.5-0.6
		c9.3,0,18.7,0,28,0c0.5,0,1.1,0.2,1.5,0.6c3.3,3.3,6.5,6.6,9.7,10c0.3,0.3,0.6,0.7,0.6,1.1c0,5,0,10.1,0,15.3c-0.6,0-1,0.1-1.5,0.1
		c-3.8,0-7.6,0.1-11.5,0c-0.8,0-1.5-0.4-2.3-0.7c0-0.2,0.1-0.3,0.1-0.5c4.6,0,9.1,0,13.8,0c0-1.6,0-3,0-4.5c0-2.8,0-5.7,0-8.6
		c0-0.6-0.3-1.3-0.7-1.7c-2.9-3.1-5.9-6.1-8.9-9.2c-0.4-0.4-1.1-0.7-1.6-0.7c-9-0.1-17.9-0.1-26.9,0c-0.6,0-1.3,0.3-1.7,0.7
		c-3.1,3-6.1,6-9.1,9.1c-0.4,0.4-0.6,1.1-0.6,1.6c0,8.6-0.1,17.2,0,25.8c0,0.6,0.3,1.3,0.7,1.7c2.5,2.6,5.1,5.1,7.6,7.6
		c0.3,0.3,0.7,0.6,1.1,0.7c2.4,0.3,4.9,0.5,7.3,0.7C38.7,58.3,38.7,58.4,38.8,58.5z"/>
	<path class="st0" d="M20.8,62.4c4.7,0,9.3,0,13.8,0c-0.3,1.1-1,1.3-1.9,1.3c-3.5-0.1-6.9,0-10.6,0c0,0.5-0.1,0.9-0.1,1.3
		c0,3.9,0,7.8,0,11.7c0,0.6,0.3,1.3,0.7,1.7c2.5,2.6,5,5.2,7.6,7.7c0.4,0.4,1.2,0.8,1.8,0.8c9.7,0.1,19.5,0.1,29.2,0
		c0.6,0,1.3-0.3,1.7-0.7c2.6-2.5,5.2-5.1,7.7-7.7c0.4-0.4,0.7-1.1,0.7-1.7c0.1-8.7,0.1-17.4,0-26.1c0-0.5-0.3-1.2-0.7-1.6
		c-2.6-2.6-5.2-5.1-7.9-7.6c-0.4-0.4-1.2-0.7-1.8-0.7c-2.8-0.1-5.6-0.1-8.4,0c-0.8,0-1.4-0.2-1.4-1.2c0.3,0,0.7-0.1,1-0.1
		c1.6,0.2,3.2,0.5,4.8,0.7c0.8,0.1,1.5,0,2.4-0.4c1-0.5,2.8-0.4,3.6,0.3c3.2,2.7,6.1,5.7,9.1,8.7c0.3,0.3,0.5,0.9,0.5,1.4
		c0,9.1,0,18.2,0,27.3c0,0.5-0.3,1.2-0.7,1.6c-2.8,2.8-5.5,5.6-8.4,8.4c-0.4,0.4-1.2,0.7-1.8,0.7C51.8,88,41.7,88,31.7,88
		c-0.6,0-1.4-0.3-1.8-0.8c-2.8-2.8-5.7-5.6-8.5-8.5c-0.3-0.3-0.7-0.8-0.7-1.2C20.7,72.5,20.8,67.5,20.8,62.4z"/>
	<path class="st0" d="M111.1,62.6c2.6,0,5.2,0,8.2,0c-0.3,0.4-0.5,0.8-0.7,0.8c-1.3,0.3-1.7,1.3-1.7,2.5c0,2.8-0.1,5.7,0,8.6
		c0,1.7,0,3.3,0.2,5c0.3,2.7,1.8,4.1,4.5,4.2c0.6,0,1.2,0,1.8,0c2.6-0.1,4.2-1.4,4.4-4c0.3-2.7,0.2-5.3,0.3-8c0-1.8,0-3.6,0-5.4
		c0-1.3-0.2-2.6-1.8-2.9c-0.1,0-0.2-0.2-0.3-0.3c-0.1-0.1,0-0.2-0.1-0.4c2.4,0,4.9,0,7.7,0c-0.4,0.4-0.6,0.7-0.9,0.7
		c-1.1,0.3-1.5,1-1.5,2c0,1.1-0.1,2.1-0.1,3.2c-0.1,3.2,0,6.5-0.1,9.7c-0.2,4.3-2.2,6.6-6.4,7.1c-2.1,0.2-4.4,0.1-6.5-0.3
		c-2.7-0.5-4.3-2.5-4.6-5.2c-0.2-2.1-0.2-4.2-0.3-6.3c-0.1-2.6,0-5.1,0-7.6c0-1.2-0.2-2.3-1.7-2.6c-0.3-0.1-0.6-0.1-0.9-0.1
		C110.7,63,110.9,62.8,111.1,62.6z"/>
	<path class="st0" d="M152.1,85.4c-2.8,0-5.5,0-8.1,0c-0.1-0.1-0.1-0.2-0.1-0.3c0.3-0.2,0.5-0.4,0.8-0.5c0.8-0.3,1.4-0.8,1.4-1.7
		c0-2.9,0.2-5.9,0-8.8c-0.2-2.7-3.8-4.1-6-2.5c-0.2,0.2-0.4,0.7-0.4,1c0,3.2,0,6.5,0.1,9.7c0,1.2,0.3,2.1,1.7,2.3
		c0.2,0,0.3,0.3,0.7,0.6c-3,0-5.7,0-8.4,0c0.1-0.3,0.1-0.5,0.2-0.5c2-0.3,2.1-1.8,2.1-3.4c0-2.8,0-5.5,0-8.3c0-1.2-0.2-2.2-1.6-2.4
		c-0.2,0-0.3-0.3-0.5-0.4c0.2-0.1,0.4-0.4,0.7-0.4c1.6-0.3,3.2-0.5,4.8-0.7c0.1,0.2,0.1,0.6,0.2,0.6c1.9-0.3,3.8-0.8,5.6-0.8
		c2.6,0,4.3,1.7,4.5,4.2c0.2,2.8,0.2,5.7,0.2,8.5c0,1.5,0.1,2.9,2,3.1C152,84.8,152,85,152.1,85.4z"/>
	<path class="st0" d="M245.7,69.3c1.5,0,2.7,0,3.8,0c1.2,0,2.3-0.1,3.5-0.2c0.1,0.1,0.1,0.2,0.2,0.4c-0.3,0.2-0.6,0.5-0.9,0.7
		c-0.7,0.3-1,0.9-0.8,1.6c1.1,3.1,2.3,6.2,3.6,9.6c1.1-3.4,2.2-6.5,3.2-9.6c0.1-0.4-0.5-1.1-0.8-1.5c-0.2-0.3-0.5-0.5-0.8-0.7
		c0.1-0.1,0.1-0.2,0.2-0.3c2,0,4.1,0,6.3,0c-0.2,0.4-0.3,0.8-0.5,0.9c-1.2,0.4-1.5,1.4-1.9,2.4c-2.2,5.7-4.3,11.5-6.4,17.2
		c-1.5,4-4.1,5.5-7.9,4.6c-0.8-0.2-1.4-0.8-2.1-1.1c0.5-0.8,0.9-1.6,1.5-2.5c0.5,0.5,0.8,0.8,1.1,1.1c1.1,0.9,3,0.8,3.8-0.5
		c1-1.5,1.6-3.3,2.4-5c0.1-0.3,0-0.7-0.2-1c-1.8-4.5-3.5-9.1-5.3-13.6c-0.3-0.6-1-1.1-1.5-1.7C246,69.9,245.9,69.6,245.7,69.3z"/>
	<path class="st0" d="M193.2,76.6c-3.3,0-6.6,0-9.9,0c-0.8,4.7,3.1,7.8,7.8,6.3c0.5-0.2,1.1-0.1,1.7-0.1c-0.4,0.5-0.6,1.2-1.1,1.5
		c-2.8,1.7-5.8,1.9-8.6,0.4c-2.7-1.3-3.6-3.9-3.4-6.7c0.1-1.6,0.3-3.2,0.8-4.6c1.3-3.5,4.6-5.2,8.3-4.4
		C192.1,69.7,193.9,72.6,193.2,76.6z M189.5,74.6c0.3-2.5-0.8-3.9-2.9-4c-2.2-0.1-3.4,1.4-3.2,4C185.4,74.6,187.5,74.6,189.5,74.6z"
		/>
	<path class="st0" d="M179.7,69.2c-0.2,0.4-0.3,0.8-0.5,0.9c-1.3,0.3-1.6,1.4-2,2.4c-1.8,3.9-3.6,7.9-5.3,11.9
		c-0.3,0.8-0.8,1.4-1.6,1.2c-0.4-0.1-0.8-0.7-1.1-1.2c-1.6-4-3.2-8-4.8-12c-0.4-1-0.6-2.1-1.9-2.4c-0.1,0-0.1-0.4-0.2-0.8
		c2.5,0,4.9,0,7.7,0c-0.4,0.4-0.7,0.8-0.9,0.9c-0.8,0.3-1.1,0.9-0.8,1.7c1,2.8,2.1,5.6,3.2,8.7c1.2-3.1,2.3-5.8,3.4-8.6
		c0.3-0.8,0.1-1.4-0.8-1.8c-0.3-0.1-0.5-0.4-1.1-0.9C175.3,69.2,177.3,69.2,179.7,69.2z"/>
	<path class="st0" d="M219.5,68.9c0,1.7,0,3,0,4.3c-0.1,0.1-0.2,0.2-0.3,0.2c-0.2-0.3-0.6-0.5-0.7-0.8c-0.7-1.8-2.8-2.7-4.5-1.8
		c-1.4,0.7-1.5,2.6-0.1,3.5c1.3,0.9,2.6,1.6,3.9,2.4c1.4,0.9,2.3,2.1,2.2,3.9c-0.1,2.5-1.2,4.2-3.6,4.6c-2,0.3-4.1,0-6.1-0.1
		c-0.3,0-0.7-0.5-0.8-0.8c-0.2-1.2-0.2-2.3-0.2-3.5c0.1-0.1,0.2-0.2,0.3-0.3c0.3,0.3,0.7,0.5,0.8,0.8c0.8,2.1,3.4,3.1,5.4,2
		c1.3-0.7,1.5-2.5,0.2-3.5c-1.2-0.9-2.5-1.6-3.7-2.4c-1.3-0.8-2.3-1.9-2.4-3.6c-0.2-2.9,1.3-4.8,4.3-5
		C215.8,68.8,217.6,68.9,219.5,68.9z"/>
	<path class="st0" d="M244,83.2c-0.4,0.6-0.5,1-0.8,1.3c-1.6,1.4-5,1.7-6.8,0.5c-1.2-0.8-1.7-2.1-1.7-3.5c0-2.9,0-5.8,0-8.7
		c0-0.5,0-0.9,0-1.4c-0.8-0.1-1.4-0.1-2-0.2c1.8-1.9,3.7-3.7,5.7-5.8c0,1.4,0,2.5,0,3.8c1.9,0,3.6,0,5.5,0c0,0.7,0,1.3,0,2
		c-1.7,0-3.5,0-5.4,0c0,2.2,0,4.2,0,6.3c0,1.1,0,2.1,0,3.2c0.1,2.6,1.4,3.6,4,3.1C242.8,83.5,243.2,83.4,244,83.2z"/>
	<path class="st0" d="M203.8,85.3c-2.8,0-5.7,0-8.9,0c0.4-0.4,0.6-0.7,0.9-0.8c1.1-0.3,1.5-1.1,1.5-2.1c0.1-3.4,0-6.8,0-10.1
		c0-0.9-0.6-1.4-1.4-1.6c-0.3-0.1-0.4-0.4-0.7-0.6c0.3-0.2,0.5-0.4,0.8-0.4c1.6-0.2,3.2-0.4,4.8-0.7c0.1,0.3,0.1,0.6,0.2,0.7
		c1.5-0.3,3-0.7,4.5-0.7c0.7,0,1.9,0.8,1.9,1c-0.2,1-0.8,1.9-1.3,2.8c0,0.1-0.6-0.2-1-0.3c-0.7-0.3-1.4-0.9-2.2-1
		c-1.5-0.2-1.9,0.3-1.9,1.8c0,2.8,0,5.7,0,8.6c0,1.9,0.3,2.2,2.2,2.7c0.3,0.1,0.5,0.3,0.8,0.4C204,85.1,203.9,85.2,203.8,85.3z"/>
	<path class="st0" d="M231.2,85.3c-2.9,0-5.7,0-8.6,0c0.2-0.3,0.3-0.5,0.4-0.6c1.9-0.2,2.1-1.5,2.1-3.1c0-3,0-6,0-8.9
		c0-1.1-0.2-2-1.6-2.1c-0.2,0-0.4-0.4-0.7-0.7c2.1-0.3,4-0.6,6-0.9c0,0.3,0.1,0.6,0.1,0.8c0,4-0.1,8.1-0.1,12.1c0,1.4,0.3,2.6,2,2.8
		C230.8,84.7,231,85,231.2,85.3z"/>
	<path class="st0" d="M153.7,69.8c0.9-0.1,1.9-0.2,2.9-0.3c0.9-0.1,1.8-0.4,2.8-0.6c0,1,0,1.9,0,2.8c0,3.5,0,7,0,10.5
		c0,1.4,0.4,2.3,1.9,2.5c0.2,0,0.3,0.2,0.4,0.6c-2.7,0-5.5,0-8.2,0c-0.1-0.1-0.1-0.1-0.1-0.2c0.2-0.1,0.4-0.4,0.7-0.4
		c1-0.2,1.6-0.8,1.6-1.8c0.1-3.6,0.1-7.2,0-10.8c0-0.5-0.8-0.9-1.3-1.4c-0.2-0.2-0.6-0.4-0.8-0.6C153.6,70,153.6,69.9,153.7,69.8z"
		/>
	<path class="st0" d="M228.9,63.9c0,1.3-0.9,2.1-2.2,2c-1.3,0-2-0.8-2-2.1c0-1.3,0.9-2.1,2.2-2.1C228.2,61.9,229,62.7,228.9,63.9z"
		/>
	<path class="st0" d="M159.6,63.9c0,1.2-0.9,2.1-2.2,2.1c-1.3,0-2.1-0.8-2.1-2c0-1.2,0.9-2.1,2.2-2.1
		C158.7,61.9,159.6,62.7,159.6,63.9z"/>
	<path class="st0" d="M50.2,70c0-0.4,0-0.7,0-1.2c1.2,0,2.4,0,3.7,0c0-1.4,0-2.6,0-3.9c0.2-0.1,0.3-0.2,0.4-0.2
		c0.3,0.3,0.8,0.7,0.8,1c0.1,1.4,0,2.8,0,4.3C53.5,70,52,70,50.2,70z"/>
	<path class="st0" d="M40.8,66.3c0.4-0.1,0.7-0.2,1.2-0.3c0,0.9,0,1.8,0,2.8c1.2,0,2.3,0,3.4,0c0,0.5,0,0.8,0,1.2c-1.5,0-3,0-4.6,0
		C40.8,68.8,40.8,67.5,40.8,66.3z"/>
	<path class="st0" d="M43.2,39.5c-0.3,1.2-0.9,1.4-3.5,0.9C41.1,40.1,42.1,39.8,43.2,39.5z"/>
</g>
</svg>
